<?xml version="1.0" encoding="utf-8"?>
<!DOCTYPE svg PUBLIC "-//W3C//DTD SVG 1.0//EN" "http://www.w3.org/TR/2001/REC-SVG-20010904/DTD/svg10.dtd">
<svg version="1.0" xmlns="http://www.w3.org/2000/svg" width="2816px" height="1572px" viewBox="0 0 2816 1572" preserveAspectRatio="xMidYMid meet">
 <g fill="#fffffe">
  <path d="M0 785.86 l0 -785.86 1408 0 1408 0 0 785.86 0 785.86 -1408 0 -1408 0 0 -785.86z m407.67 263.80 c19.44 -4.09 39.70 -15.35 54.64 -30.29 44 -44 43.59 -104.58 -0.61 -148.78 -15.14 -15.14 -29.27 -23.33 -48.50 -28.45 -51.16 -13.71 -110.10 25.99 -123.61 83.09 -3.89 16.58 -3.89 24.56 0 39.70 10.44 41.13 43.59 74.29 83.50 84.11 13.71 3.27 21.08 3.48 34.59 0.61z m275.87 -2.25 c42.98 -10.44 77.97 -52.60 81.25 -97.82 2.46 -33.36 -19.44 -74.08 -50.55 -94.14 -12.48 -7.98 -38.07 -16.37 -49.73 -16.37 -13.30 0.20 -32.95 5.12 -45.84 11.46 -14.73 7.16 -40.52 32.54 -48.30 47.27 -8.60 16.17 -14.12 40.11 -12.69 54.23 3.89 37.04 28.86 72.04 63.24 88.61 22.31 10.64 38.88 12.48 62.62 6.75z m641.58 -98.64 c24.15 -8.19 36.84 -16.37 56.48 -35.81 15.35 -15.14 19.03 -20.47 28.04 -39.09 23.53 -48.30 26.81 -102.94 9.21 -152.47 -26.60 -74.49 -93.73 -113.38 -169.66 -98.03 -47.48 9.41 -88.61 46.66 -106.62 96.80 -7.78 21.49 -11.26 40.52 -11.46 64.67 -0.61 83.09 44.61 148.99 114.60 166.79 23.33 5.93 56.89 4.71 79.40 -2.87z m262.57 4.09 c14.73 -4.09 27.01 -11.67 37.86 -23.74 7.78 -8.60 10.23 -10.23 16.58 -10.23 l7.37 0 0 16.37 0 16.37 16.37 0 16.37 0 0 -115.63 0 -115.63 -17.19 0 -17.19 0 -0.82 78.38 c-1.02 89.43 -1.43 92.09 -16.99 109.49 -11.26 12.48 -21.49 16.99 -43.18 18.21 -27.63 1.84 -47.07 -6.34 -55.87 -23.74 -7.37 -14.53 -8.39 -27.01 -8.39 -105.60 l0 -76.74 -18.42 0 -18.42 0 0 76.33 c0 82.68 1.23 94.75 11.46 115.42 15.96 32.95 54.44 50.34 90.46 40.73z m618.87 -2.46 c16.78 -6.14 23.33 -10.03 36.02 -22.10 8.60 -8.19 22.92 -29.27 22.92 -33.77 0 -1.43 -5.53 -2.25 -16.17 -2.25 l-15.96 0 -5.12 9.62 c-5.73 11.46 -18.83 22.10 -30.90 25.38 -4.91 1.23 -18.01 1.84 -31.11 1.43 -19.44 -0.61 -23.94 -1.64 -32.95 -6.14 -12.48 -6.55 -22.31 -17.19 -28.86 -31.31 -4.91 -11.26 -10.23 -41.34 -8.19 -46.87 1.23 -2.87 10.64 -3.27 89.64 -3.27 l88.41 0 -1.23 -15.76 c-2.46 -33.97 -13.71 -60.17 -33.97 -80.63 -40.73 -40.73 -104.37 -39.70 -145.51 2.05 -45.64 46.46 -45.43 132.20 0.20 177.84 21.08 21.08 45.84 30.70 79 30.90 15.35 0.20 21.49 -0.82 33.77 -5.12z m231.67 1.84 c14.53 -3.89 26.81 -11.67 36.63 -23.13 5.93 -7.16 7.98 -8.19 15.35 -8.19 l8.60 0 0 15.35 0 15.35 16.37 0 16.37 0 0 -164.74 0 -164.74 -18.42 0 -18.42 0 0 63.44 0 63.44 -6.14 0 c-4.91 0 -8.80 -2.46 -16.37 -10.03 -18.42 -18.42 -45.84 -27.63 -68.76 -22.92 -16.58 3.27 -35.61 12.48 -47.07 23.13 -54.23 49.73 -47.89 164.13 11.46 202.20 21.28 13.71 46.46 17.60 70.40 10.85z m-580.19 -1.43 c1.23 -0.82 2.25 -6.96 2.25 -13.71 l0 -12.07 -17.40 0 c-20.26 0 -27.83 -2.87 -33.15 -12.89 -3.27 -5.93 -3.68 -13.92 -3.68 -85.34 l0 -78.79 27.22 -0.61 27.01 -0.61 0 -13.10 0 -13.10 -27.01 -0.61 -27.22 -0.61 -0.61 -33.15 -0.41 -33.36 -17.40 0 -17.40 0 -0.41 33.36 -0.61 33.15 -18.83 0.61 -19.03 0.61 0 13.10 0 13.30 19.44 0 19.44 0 0 73.27 c0 73.47 1.23 91.27 7.57 103.76 10.23 20.26 30.70 30.08 60.17 28.86 9.82 -0.41 18.83 -1.23 20.06 -2.05z m92.91 -71.22 c1.02 -75.93 1.84 -82.47 11.26 -101.10 4.91 -9.62 16.58 -19.65 28.45 -24.56 4.30 -1.84 15.76 -3.89 25.38 -4.50 l17.60 -1.02 1.23 -14.33 c0.61 -7.98 0.61 -15.35 0 -16.37 -2.25 -3.68 -25.79 -0.20 -36.63 5.32 -14.33 7.16 -21.28 13.51 -28.45 25.79 -5.73 9.41 -6.75 10.44 -13.71 10.44 l-7.78 0 0 -19.44 0 -19.44 -16.37 0 -16.37 0 0 115.63 0 115.63 17.19 0 17.19 0 1.02 -72.04z m-1408 -64.06 c40.11 -8.39 74.70 -42.57 84.32 -83.09 3.89 -16.78 3.89 -26.60 0 -41.75 -10.64 -40.52 -41.75 -72.04 -81.04 -82.07 -51.98 -13.30 -112.15 30.49 -122.79 89.02 -8.19 45.84 26.40 99.05 74.49 114.60 21.49 6.96 26.40 7.37 45.02 3.27z m394.36 -90.46 c32.95 -11.26 57.92 -38.68 68.56 -75.31 15.35 -52.39 -22.10 -112.56 -79 -127.09 -46.87 -12.07 -103.14 21.90 -119.72 72.04 -5.32 16.58 -5.32 44.61 0.20 61.19 9.21 28.65 37.25 58.33 64.47 68.56 24.35 9.21 39.70 9.21 65.49 0.61z"/>
  <path d="M1246.33 919.91 c-33.77 -9.41 -60.58 -40.32 -71.01 -81.86 -5.12 -20.47 -5.12 -81.86 0 -102.33 15.35 -60.99 59.96 -91.27 122.38 -83.50 43.39 5.53 72.24 31.72 85.95 78.38 6.34 21.69 7.98 75.93 2.87 100.48 -8.80 44.20 -30.08 72.65 -64.47 86.77 -12.69 5.32 -59.55 6.34 -75.72 2.05z"/>
  <path d="M2097.67 805.30 c0 -24.76 18.01 -51.98 40.11 -60.17 15.55 -5.93 43.39 -5.93 58.94 -0.20 21.90 8.39 38.07 33.36 38.07 59.35 l0 12.28 -68.56 0 -68.56 0 0 -11.26z"/>
  <path d="M2404.24 926.46 c-20.06 -5.73 -35 -21.49 -42.16 -44.41 -2.66 -9 -3.48 -19.03 -3.48 -49.12 0 -34.38 0.41 -38.88 4.71 -49.12 6.55 -16.58 15.14 -27.01 27.42 -33.97 10.23 -5.53 12.07 -5.93 34.38 -5.93 21.49 0 24.35 0.41 33.77 5.53 17.60 9.21 27.63 23.13 32.95 45.84 4.91 21.69 3.27 75.31 -3.07 91.48 -10.85 27.63 -28.24 40.11 -57.71 41.54 -10.64 0.41 -20.87 -0.20 -26.81 -1.84z"/>
 </g>
 <g fill="#b4201e">
  <path d="M2136.56 958.59 c-39.29 -10.23 -67.94 -40.11 -78.79 -81.66 -5.53 -21.08 -6.14 -52.39 -1.43 -74.70 5.53 -26.60 14.73 -44.82 31.11 -61.60 20.06 -20.47 41.95 -30.08 72.65 -31.93 35.40 -2.05 62.83 7.57 85.13 29.88 21.90 21.90 32.13 47.89 33.97 86.77 l1.23 21.90 -88.20 0 c-48.50 0 -88.61 0.61 -89.02 1.64 -1.84 2.87 2.87 26.20 7.57 36.22 10.85 23.94 28.65 36.02 55.46 37.45 9 0.41 20.26 -0.20 24.97 -1.43 12.07 -3.27 25.17 -13.92 30.90 -25.38 l5.12 -9.62 24.15 0 c28.45 0 27.83 -0.61 17.80 19.85 -12.07 24.76 -30.49 41.13 -56.48 50.55 -13.30 4.71 -18.01 5.32 -39.91 5.12 -14.94 0 -29.47 -1.23 -36.22 -3.07z m92.09 -154.31 c0 -10.64 -8.39 -29.06 -18.01 -39.29 -16.17 -17.19 -42.77 -22.72 -66.72 -13.71 -19.24 7.16 -40.11 35.20 -40.11 54.03 l0 5.12 62.42 0 62.42 0 0 -6.14z"/>
  <path d="M2383.78 957.97 c-24.97 -7.98 -44.20 -25.38 -56.07 -50.34 -9.62 -20.06 -13.10 -35.20 -14.53 -61.80 -3.07 -59.55 18.01 -106.83 56.48 -126.27 38.27 -19.44 82.68 -13.71 110.10 14.53 l8.80 9.21 0 -63.65 0 -63.65 24.56 0 24.56 0 0 170.88 0 170.88 -22.51 0 -22.51 0 0 -15.35 c0 -18.01 -1.64 -19.03 -11.67 -7.16 -15.96 18.62 -36.43 26.60 -67.33 26.40 -11.67 0 -22.31 -1.43 -29.88 -3.68z m69.99 -42.77 c12.89 -6.55 22.31 -17.60 28.86 -34.59 3.68 -9.41 4.71 -17.19 5.53 -38.47 1.43 -47.89 -8.60 -72.45 -35.40 -86.57 -8.80 -4.71 -12.89 -5.53 -27.63 -5.53 -15.35 0 -18.62 0.61 -28.24 5.93 -12.28 6.96 -20.87 17.40 -27.42 33.97 -4.09 9.82 -4.50 15.14 -4.71 42.98 0 35.61 2.46 47.48 13.30 63.65 16.17 24.76 48.09 32.54 75.72 18.62z"/>
  <path d="M1908.99 840.09 c-0.20 -64.67 -0.41 -119.31 -0.41 -121.15 -0.20 -3.27 2.46 -3.68 22.92 -4.30 l22.92 -0.61 0 19.65 c0 10.64 0.61 19.44 1.64 19.44 0.82 0 4.30 -4.71 7.57 -10.44 7.16 -12.28 13.92 -18.42 28.45 -25.99 9 -4.71 12.89 -5.32 29.88 -5.53 l19.44 0 -0.41 22.31 -0.41 22.31 -18.01 0.41 c-33.77 0.61 -51.78 14.33 -61.60 47.07 -2.46 8.19 -3.27 24.76 -3.48 81.86 l-0.41 71.63 -23.94 0.61 -23.74 0.61 -0.41 -117.88z"/>
  <path d="M887.37 736.74 c-29.06 -5.12 -55.05 -22.31 -71.83 -47.07 -41.75 -61.80 -15.35 -145.71 53.82 -170.27 14.73 -5.12 44.41 -7.16 60.37 -3.68 18.42 3.68 39.29 15.35 53.41 29.47 21.90 21.90 32.74 48.50 32.74 80.02 0 37.86 -16.58 70.81 -46.66 92.91 -20.26 14.94 -56.48 23.13 -81.86 18.62z"/>
 </g>
 <g fill="#1f1f1f">
  <path d="M1239.57 957.77 c-56.89 -14.33 -98.64 -61.60 -111.13 -125.86 -4.71 -23.53 -4.71 -69.58 -0.20 -90.25 8.39 -37.25 21.90 -62.62 46.25 -86.77 29.67 -29.67 59.76 -40.93 108.47 -40.93 48.50 0 86.77 17.19 113.79 51.16 29.06 36.43 41.75 79.81 39.29 132.82 -1.64 32.95 -6.96 55.05 -20.26 82.07 -9 18.62 -12.69 23.94 -28.04 39.09 -19.65 19.44 -32.33 27.42 -56.48 35.81 -14.33 4.91 -20.06 5.73 -46.05 6.14 -24.35 0.61 -32.54 0 -45.64 -3.27z m76.33 -46.05 c34.18 -13.71 55.67 -42.57 64.47 -86.77 4.91 -23.53 3.27 -66.31 -3.07 -88.20 -16.17 -55.87 -59.76 -85.95 -112.35 -77.97 -41.95 6.55 -71.63 36.22 -83.50 83.09 -4.91 20.06 -4.91 69.99 0 90.05 10.44 41.34 37.25 72.45 71.01 81.86 15.14 4.09 50.75 3.07 63.44 -2.05z"/>
  <path d="M1542.46 959.61 c-21.08 -4.91 -41.75 -21.69 -51.37 -41.34 -10.23 -20.87 -11.46 -32.33 -11.46 -121.56 l0 -82.47 24.56 0 24.56 0 0 76.74 c0 78.59 1.02 91.07 8.39 105.60 10.85 21.49 41.95 30.08 69.38 19.03 11.05 -4.50 25.79 -21.08 30.08 -34.18 2.87 -9 3.48 -22.51 4.30 -88.82 l0.82 -78.38 23.33 0 23.33 0 0 119.72 c0 65.90 0.20 120.33 0.61 121.36 0.20 0.82 -10.03 1.64 -22.51 2.05 l-23.13 0.61 0 -16.58 c0 -9 -0.61 -16.37 -1.23 -16.37 -0.61 0 -5.32 4.71 -10.44 10.23 -10.85 12.07 -23.13 19.65 -37.86 23.74 -11.87 3.07 -39.29 3.48 -51.37 0.61z"/>
  <path d="M1806.05 957.15 c-17.40 -5.73 -27.83 -14.12 -34.38 -27.01 -6.34 -12.48 -7.57 -30.29 -7.57 -103.76 l0 -73.27 -19.44 0 -19.44 0 0 -19.44 0 -19.24 19.03 -0.61 18.83 -0.61 0.61 -33.15 0.41 -33.15 23.13 -0.61 c12.48 -0.41 23.13 -0.61 23.33 -0.61 0.20 0 0.61 15.35 1.02 33.77 l0.61 33.77 27.22 0.61 27.01 0.61 0 19.24 0 19.24 -27.01 0.61 -27.22 0.61 0 72.65 c0 65.49 0.41 73.27 3.68 79.20 5.32 10.03 12.89 12.89 33.15 12.89 l17.40 0 0 18.21 c0 12.48 -0.82 18.83 -2.46 19.85 -4.71 3.07 -49.12 3.07 -57.92 0.20z"/>
 </g>
 <g fill="#070707">
  <path d="M366.94 1055.18 c-49.32 -12.07 -86.57 -59.35 -86.57 -109.69 0.20 -51.16 34.79 -96.39 83.91 -109.49 6.14 -1.64 18.62 -3.07 27.63 -3.07 30.90 0 53.82 9.62 75.93 31.52 23.13 23.13 33.56 48.30 33.56 81.45 0 32.13 -10.23 56.89 -32.95 79.61 -26.81 27.01 -65.69 38.27 -101.51 29.67z"/>
  <path d="M1640.28 860.76 c0.61 -5.53 1.02 -40.73 1.02 -78.18 0 -63.85 0.20 -68.35 3.68 -68.15 2.05 0 2.46 0.61 1.02 1.23 -2.05 0.82 -2.66 17.19 -2.87 71.83 -0.20 39.09 -1.02 73.88 -2.05 77.15 -1.23 4.71 -1.43 3.89 -0.82 -3.89z"/>
 </g>
 <g fill="#b6b6b5">
  <path d="M640.76 1055.80 c-16.58 -2.87 -39.29 -14.73 -53.21 -27.63 -37.66 -34.79 -47.27 -88 -24.35 -134.25 8.39 -16.58 32.95 -41.54 49.32 -49.53 33.36 -16.58 77.36 -14.53 107.85 4.91 22.10 14.12 41.34 40.93 48.09 67.53 4.71 18.01 3.48 47.27 -2.87 65.49 -11.46 33.36 -39.50 60.58 -73.06 70.60 -12.89 3.89 -38.27 5.32 -51.78 2.87z"/>
 </g>
 <g fill="#676767">
  <path d="M509.58 823.31 c-53.21 -8.80 -94.14 -57.71 -94.14 -111.74 0.20 -46.66 31.11 -90.46 74.70 -106.01 15.35 -5.32 43.18 -7.37 58.94 -4.09 19.24 4.09 39.70 15.55 54.64 30.70 43.80 44.41 43.59 116.24 -0.61 159.83 -24.56 24.35 -61.60 36.63 -93.53 31.31z"/>
 </g>
</svg>